# xmcd CD database file
# Copyright (C) 1993-1998 Ti Kan
#
# Track frame offsets:
#	212
#	12077
#	25635
#	39162
#	53602
#	67357
#	79260
#	91332
#	104765
#	117147
#	130197
#	143375
#
# Disc length: 2082 seconds
#
# Revision: 1
# Processed by: cddbd v1.4b41PL1 Copyright (c) Steve Scherf et al.
# Submitted via: CDValet v3.31 - Copyright (c) 1997 Greg Leichner
#
DISCID=9308200c
DTITLE=Buddy Guy - Southern Blues 1957-63
DYEAR=1900
DGENRE=
TTITLE0=You Sure Can't Do
TTITLE1=This Is The End
TTITLE2=I Hope You Come Back Home
TTITLE3=The Way You Been Treatin' Me
TTITLE4=Sit And Cry
TTITLE5=Try To Quit You Baby
TTITLE6=You Sure Can't Do
TTITLE7=This Is The End
TTITLE8=Good Things
TTITLE9=Too Many Cooks
TTITLE10=Heavy Heart Beat
TTITLE11=God's Gift To Man
EXTD=
EXTT0=
EXTT1=
EXTT2=
EXTT3=
EXTT4=
EXTT5=
EXTT6=
EXTT7=
EXTT8=
EXTT9=
EXTT10=
EXTT11=
PLAYORDER=
